<mxfile host="app.diagrams.net" modified="2022-06-30T12:22:42.822Z" agent="5.0 (Windows NT 10.0; Win64; x64) AppleWebKit/537.36 (KHTML, like Gecko) Chrome/103.0.0.0 Safari/537.36" etag="O04SG2VYCDBHhaL5CV-l" version="20.0.4" type="github">
  <diagram id="WV2yp7_VuUgRMyDx2uYZ" name="Page-1">
    <mxGraphModel dx="1422" dy="762" grid="1" gridSize="10" guides="1" tooltips="1" connect="1" arrows="1" fold="1" page="1" pageScale="1" pageWidth="850" pageHeight="1100" math="0" shadow="0">
      <root>
        <mxCell id="0" />
        <mxCell id="1" parent="0" />
        <mxCell id="_FMqFSPQVT0n97igrikF-6" style="edgeStyle=orthogonalEdgeStyle;rounded=0;orthogonalLoop=1;jettySize=auto;html=1;entryX=0;entryY=0.5;entryDx=0;entryDy=0;" edge="1" parent="1" source="_FMqFSPQVT0n97igrikF-1" target="_FMqFSPQVT0n97igrikF-5">
          <mxGeometry relative="1" as="geometry" />
        </mxCell>
        <mxCell id="_FMqFSPQVT0n97igrikF-1" value="ROUTER&lt;br&gt;Index.php" style="rounded=1;whiteSpace=wrap;html=1;" vertex="1" parent="1">
          <mxGeometry x="100" y="290" width="120" height="60" as="geometry" />
        </mxCell>
        <mxCell id="_FMqFSPQVT0n97igrikF-4" style="edgeStyle=orthogonalEdgeStyle;rounded=0;orthogonalLoop=1;jettySize=auto;html=1;" edge="1" parent="1" source="_FMqFSPQVT0n97igrikF-2" target="_FMqFSPQVT0n97igrikF-1">
          <mxGeometry relative="1" as="geometry" />
        </mxCell>
        <mxCell id="_FMqFSPQVT0n97igrikF-2" value="URL&lt;br&gt;http://...index.php&lt;br&gt;http://...index.php?action=posts" style="ellipse;whiteSpace=wrap;html=1;" vertex="1" parent="1">
          <mxGeometry x="40" y="40" width="240" height="80" as="geometry" />
        </mxCell>
        <mxCell id="_FMqFSPQVT0n97igrikF-5" value="Controller" style="rounded=1;whiteSpace=wrap;html=1;" vertex="1" parent="1">
          <mxGeometry x="320" y="290" width="120" height="60" as="geometry" />
        </mxCell>
      </root>
    </mxGraphModel>
  </diagram>
</mxfile>
